<?xml version="1.0" encoding="UTF-8" standalone="no"?>
<!DOCTYPE svg PUBLIC "-//W3C//DTD SVG 1.1//EN"
 "http://www.w3.org/Graphics/SVG/1.1/DTD/svg11.dtd">
<!-- Generated by graphviz version 13.1.0 (20250701.0955)
 -->
<!-- Title: G Pages: 1 -->
<svg width="292pt" height="190pt"
 viewBox="0.00 0.00 292.00 190.00" xmlns="http://www.w3.org/2000/svg" xmlns:xlink="http://www.w3.org/1999/xlink">
<g id="graph0" class="graph" transform="scale(1 1) rotate(0) translate(4 186)">
<title>G</title>
<polygon fill="white" stroke="none" points="-4,4 -4,-186 288,-186 288,4 -4,4"/>
<!-- hyperelastic -->
<g id="node1" class="node">
<title>hyperelastic</title>
<path fill="none" stroke="black" d="M161.5,-182C161.5,-182 104.25,-182 104.25,-182 98.25,-182 92.25,-176 92.25,-170 92.25,-170 92.25,-158 92.25,-158 92.25,-152 98.25,-146 104.25,-146 104.25,-146 161.5,-146 161.5,-146 167.5,-146 173.5,-152 173.5,-158 173.5,-158 173.5,-170 173.5,-170 173.5,-176 167.5,-182 161.5,-182"/>
<text xml:space="preserve" text-anchor="middle" x="132.88" y="-158.95" font-family="Times,serif" font-size="14.00">hyperelastic</text>
</g>
<!-- operations -->
<g id="node2" class="node">
<title>operations</title>
<path fill="none" stroke="black" d="M272,-113C272,-113 223.75,-113 223.75,-113 217.75,-113 211.75,-107 211.75,-101 211.75,-101 211.75,-89 211.75,-89 211.75,-83 217.75,-77 223.75,-77 223.75,-77 272,-77 272,-77 278,-77 284,-83 284,-89 284,-89 284,-101 284,-101 284,-107 278,-113 272,-113"/>
<text xml:space="preserve" text-anchor="middle" x="247.88" y="-89.95" font-family="Times,serif" font-size="14.00">operations</text>
</g>
<!-- hyperelastic&#45;&gt;operations -->
<g id="edge1" class="edge">
<title>hyperelastic&#45;&gt;operations</title>
<path fill="none" stroke="black" d="M164.16,-145.51C177.44,-137.4 193.2,-127.78 207.38,-119.11"/>
<polygon fill="black" stroke="black" points="208.9,-122.29 215.61,-114.09 205.25,-116.32 208.9,-122.29"/>
</g>
<!-- viscoelastic -->
<g id="node3" class="node">
<title>viscoelastic</title>
<path fill="none" stroke="black" d="M160.38,-90C160.38,-90 105.38,-90 105.38,-90 99.38,-90 93.38,-84 93.38,-78 93.38,-78 93.38,-66 93.38,-66 93.38,-60 99.38,-54 105.38,-54 105.38,-54 160.38,-54 160.38,-54 166.38,-54 172.38,-60 172.38,-66 172.38,-66 172.38,-78 172.38,-78 172.38,-84 166.38,-90 160.38,-90"/>
<text xml:space="preserve" text-anchor="middle" x="132.88" y="-66.95" font-family="Times,serif" font-size="14.00">viscoelastic</text>
</g>
<!-- viscoelastic&#45;&gt;operations -->
<g id="edge2" class="edge">
<title>viscoelastic&#45;&gt;operations</title>
<path fill="none" stroke="black" d="M172.76,-79.92C181.56,-81.71 190.99,-83.63 200.08,-85.48"/>
<polygon fill="black" stroke="black" points="199.35,-88.9 209.85,-87.46 200.75,-82.04 199.35,-88.9"/>
</g>
<!-- multiphysics -->
<g id="node4" class="node">
<title>multiphysics</title>
<path fill="none" stroke="black" d="M163.75,-36C163.75,-36 102,-36 102,-36 96,-36 90,-30 90,-24 90,-24 90,-12 90,-12 90,-6 96,0 102,0 102,0 163.75,0 163.75,0 169.75,0 175.75,-6 175.75,-12 175.75,-12 175.75,-24 175.75,-24 175.75,-30 169.75,-36 163.75,-36"/>
<text xml:space="preserve" text-anchor="middle" x="132.88" y="-12.95" font-family="Times,serif" font-size="14.00">multiphysics</text>
</g>
<!-- multiphysics&#45;&gt;operations -->
<g id="edge3" class="edge">
<title>multiphysics&#45;&gt;operations</title>
<path fill="none" stroke="black" d="M162.81,-36.44C167.16,-39.28 171.59,-42.2 175.75,-45 187.68,-53.04 200.59,-62.02 212.09,-70.13"/>
<polygon fill="black" stroke="black" points="209.95,-72.9 220.13,-75.82 213.99,-67.19 209.95,-72.9"/>
</g>
<!-- fitting -->
<g id="node5" class="node">
<title>fitting</title>
<path fill="none" stroke="black" d="M42,-136C42,-136 12,-136 12,-136 6,-136 0,-130 0,-124 0,-124 0,-112 0,-112 0,-106 6,-100 12,-100 12,-100 42,-100 42,-100 48,-100 54,-106 54,-112 54,-112 54,-124 54,-124 54,-130 48,-136 42,-136"/>
<text xml:space="preserve" text-anchor="middle" x="27" y="-112.95" font-family="Times,serif" font-size="14.00">fitting</text>
</g>
<!-- fitting&#45;&gt;hyperelastic -->
<g id="edge4" class="edge">
<title>fitting&#45;&gt;hyperelastic</title>
<path fill="none" stroke="black" d="M54.48,-129.73C62.78,-133.4 72.23,-137.59 81.61,-141.74"/>
<polygon fill="black" stroke="black" points="80.15,-144.92 90.71,-145.77 82.99,-138.52 80.15,-144.92"/>
</g>
<!-- fitting&#45;&gt;operations -->
<g id="edge5" class="edge">
<title>fitting&#45;&gt;operations</title>
<path fill="none" stroke="black" d="M54.4,-115.23C90.41,-111.44 155.51,-104.6 199.94,-99.93"/>
<polygon fill="black" stroke="black" points="200.24,-103.42 209.82,-98.89 199.51,-96.46 200.24,-103.42"/>
</g>
<!-- fitting&#45;&gt;viscoelastic -->
<g id="edge6" class="edge">
<title>fitting&#45;&gt;viscoelastic</title>
<path fill="none" stroke="black" d="M54.48,-106.27C63.04,-102.48 72.83,-98.15 82.51,-93.86"/>
<polygon fill="black" stroke="black" points="83.78,-97.13 91.51,-89.88 80.95,-90.73 83.78,-97.13"/>
</g>
</g>
</svg>
