<?xml version="1.0" encoding="UTF-8" standalone="no"?>
<!DOCTYPE svg PUBLIC "-//W3C//DTD SVG 1.1//EN"
 "http://www.w3.org/Graphics/SVG/1.1/DTD/svg11.dtd">
<!-- Generated by graphviz version 13.1.0 (20250701.0955)
 -->
<!-- Title: G Pages: 1 -->
<svg width="1088pt" height="212pt"
 viewBox="0.00 0.00 1088.00 212.00" xmlns="http://www.w3.org/2000/svg" xmlns:xlink="http://www.w3.org/1999/xlink">
<g id="graph0" class="graph" transform="scale(1 1) rotate(0) translate(4 207.69)">
<title>G</title>
<!-- Models -->
<g id="node1" class="node">
<title>Models</title>
<ellipse fill="#e15759" stroke="#2d5985" stroke-width="1.5" cx="90" cy="-104.69" rx="90" ry="43.2"/>
<text xml:space="preserve" text-anchor="middle" x="90" y="-99.66" font-family="Helvetica,Arial,sans-serif" font-size="12.00" fill="white">Constitutive Models</text>
</g>
<!-- Hyperelastic -->
<g id="node2" class="node">
<title>Hyperelastic</title>
<path fill="#f28e2b" stroke="#2d5985" stroke-width="1.5" d="M384,-203.69C384,-203.69 228,-203.69 228,-203.69 222,-203.69 216,-197.69 216,-191.69 216,-191.69 216,-179.69 216,-179.69 216,-173.69 222,-167.69 228,-167.69 228,-167.69 384,-167.69 384,-167.69 390,-167.69 396,-173.69 396,-179.69 396,-179.69 396,-191.69 396,-191.69 396,-197.69 390,-203.69 384,-203.69"/>
<text xml:space="preserve" text-anchor="middle" x="306" y="-180.66" font-family="Helvetica,Arial,sans-serif" font-size="12.00" fill="white">Hyperelastic</text>
</g>
<!-- Models&#45;&gt;Hyperelastic -->
<!-- Viscoelastic -->
<g id="node3" class="node">
<title>Viscoelastic</title>
<path fill="#f28e2b" stroke="#2d5985" stroke-width="1.5" d="M384,-149.69C384,-149.69 228,-149.69 228,-149.69 222,-149.69 216,-143.69 216,-137.69 216,-137.69 216,-125.69 216,-125.69 216,-119.69 222,-113.69 228,-113.69 228,-113.69 384,-113.69 384,-113.69 390,-113.69 396,-119.69 396,-125.69 396,-125.69 396,-137.69 396,-137.69 396,-143.69 390,-149.69 384,-149.69"/>
<text xml:space="preserve" text-anchor="middle" x="306" y="-126.66" font-family="Helvetica,Arial,sans-serif" font-size="12.00" fill="white">Viscoelastic</text>
</g>
<!-- Models&#45;&gt;Viscoelastic -->
<!-- Multiphysics -->
<g id="node4" class="node">
<title>Multiphysics</title>
<path fill="#f28e2b" stroke="#2d5985" stroke-width="1.5" d="M384,-95.69C384,-95.69 228,-95.69 228,-95.69 222,-95.69 216,-89.69 216,-83.69 216,-83.69 216,-71.69 216,-71.69 216,-65.69 222,-59.69 228,-59.69 228,-59.69 384,-59.69 384,-59.69 390,-59.69 396,-65.69 396,-71.69 396,-71.69 396,-83.69 396,-83.69 396,-89.69 390,-95.69 384,-95.69"/>
<text xml:space="preserve" text-anchor="middle" x="306" y="-72.66" font-family="Helvetica,Arial,sans-serif" font-size="12.00" fill="white">Multiphysics</text>
</g>
<!-- Models&#45;&gt;Multiphysics -->
<!-- SymPy\nRepresentation -->
<g id="node5" class="node">
<title>SymPy\nRepresentation</title>
<path fill="#59a14f" stroke="#2d5985" stroke-width="1.5" d="M384,-41.69C384,-41.69 228,-41.69 228,-41.69 222,-41.69 216,-35.69 216,-29.69 216,-29.69 216,-17.69 216,-17.69 216,-11.69 222,-5.69 228,-5.69 228,-5.69 384,-5.69 384,-5.69 390,-5.69 396,-11.69 396,-17.69 396,-17.69 396,-29.69 396,-29.69 396,-35.69 390,-41.69 384,-41.69"/>
<text xml:space="preserve" text-anchor="middle" x="306" y="-25.04" font-family="Helvetica,Arial,sans-serif" font-size="12.00" fill="white">SymPy</text>
<text xml:space="preserve" text-anchor="middle" x="306" y="-12.29" font-family="Helvetica,Arial,sans-serif" font-size="12.00" fill="white">Representation</text>
</g>
<!-- Models&#45;&gt;SymPy\nRepresentation -->
<g id="edge4" class="edge">
<title>Models&#45;&gt;SymPy\nRepresentation</title>
<path fill="none" stroke="black" stroke-width="2" d="M156.28,-74.83C175.35,-66.56 196.36,-57.88 216,-50.69 220.93,-48.88 226.04,-47.1 231.21,-45.37"/>
<polygon fill="black" stroke="black" stroke-width="2" points="231.78,-47.75 237.67,-43.24 230.25,-43.1 231.78,-47.75"/>
</g>
<!-- Hyperelastic&#45;&gt;Viscoelastic -->
<!-- Viscoelastic&#45;&gt;Multiphysics -->
<!-- Auto&#45;diff\n&amp; Codegen -->
<g id="node6" class="node">
<title>Auto&#45;diff\n&amp; Codegen</title>
<path fill="#edc948" stroke="#2d5985" stroke-width="1.5" d="M600,-41.69C600,-41.69 444,-41.69 444,-41.69 438,-41.69 432,-35.69 432,-29.69 432,-29.69 432,-17.69 432,-17.69 432,-11.69 438,-5.69 444,-5.69 444,-5.69 600,-5.69 600,-5.69 606,-5.69 612,-11.69 612,-17.69 612,-17.69 612,-29.69 612,-29.69 612,-35.69 606,-41.69 600,-41.69"/>
<text xml:space="preserve" text-anchor="middle" x="522" y="-25.04" font-family="Helvetica,Arial,sans-serif" font-size="12.00" fill="white">Auto&#45;diff</text>
<text xml:space="preserve" text-anchor="middle" x="522" y="-12.29" font-family="Helvetica,Arial,sans-serif" font-size="12.00" fill="white">&amp; Codegen</text>
</g>
<!-- SymPy\nRepresentation&#45;&gt;Auto&#45;diff\n&amp; Codegen -->
<g id="edge5" class="edge">
<title>SymPy\nRepresentation&#45;&gt;Auto&#45;diff\n&amp; Codegen</title>
<path fill="none" stroke="black" d="M396.52,-23.69C405.28,-23.69 414.21,-23.69 423.05,-23.69"/>
<polygon fill="black" stroke="black" points="422.99,-26.14 429.99,-23.69 422.99,-21.24 422.99,-26.14"/>
</g>
<!-- NumPy / JAX\n/ PyTorch -->
<g id="node7" class="node">
<title>NumPy / JAX\n/ PyTorch</title>
<path fill="#76b7b2" stroke="#2d5985" stroke-width="1.5" d="M816,-41.69C816,-41.69 660,-41.69 660,-41.69 654,-41.69 648,-35.69 648,-29.69 648,-29.69 648,-17.69 648,-17.69 648,-11.69 654,-5.69 660,-5.69 660,-5.69 816,-5.69 816,-5.69 822,-5.69 828,-11.69 828,-17.69 828,-17.69 828,-29.69 828,-29.69 828,-35.69 822,-41.69 816,-41.69"/>
<text xml:space="preserve" text-anchor="middle" x="738" y="-25.04" font-family="Helvetica,Arial,sans-serif" font-size="12.00" fill="white">NumPy / JAX</text>
<text xml:space="preserve" text-anchor="middle" x="738" y="-12.29" font-family="Helvetica,Arial,sans-serif" font-size="12.00" fill="white">/ PyTorch</text>
</g>
<!-- Auto&#45;diff\n&amp; Codegen&#45;&gt;NumPy / JAX\n/ PyTorch -->
<g id="edge6" class="edge">
<title>Auto&#45;diff\n&amp; Codegen&#45;&gt;NumPy / JAX\n/ PyTorch</title>
<path fill="none" stroke="black" d="M612.52,-23.69C621.28,-23.69 630.21,-23.69 639.05,-23.69"/>
<polygon fill="black" stroke="black" points="638.99,-26.14 645.99,-23.69 638.99,-21.24 638.99,-26.14"/>
</g>
<!-- Applications:\nFEA / PINNs / GNNs / UQ -->
<g id="node8" class="node">
<title>Applications:\nFEA / PINNs / GNNs / UQ</title>
<ellipse fill="#b07aa1" stroke="#2d5985" stroke-width="1.5" cx="972" cy="-23.69" rx="108" ry="23.69"/>
<text xml:space="preserve" text-anchor="middle" x="972" y="-25.04" font-family="Helvetica,Arial,sans-serif" font-size="12.00" fill="white">Applications:</text>
<text xml:space="preserve" text-anchor="middle" x="972" y="-12.29" font-family="Helvetica,Arial,sans-serif" font-size="12.00" fill="white">FEA / PINNs / GNNs / UQ</text>
</g>
<!-- NumPy / JAX\n/ PyTorch&#45;&gt;Applications:\nFEA / PINNs / GNNs / UQ -->
<g id="edge7" class="edge">
<title>NumPy / JAX\n/ PyTorch&#45;&gt;Applications:\nFEA / PINNs / GNNs / UQ</title>
<path fill="none" stroke="black" d="M828.7,-23.69C837.3,-23.69 846.1,-23.69 854.9,-23.69"/>
<polygon fill="black" stroke="black" points="854.83,-26.14 861.83,-23.69 854.83,-21.24 854.83,-26.14"/>
</g>
</g>
</svg>
